<?xml version="1.0" encoding="utf-8"?>
<!-- Generator: Adobe Illustrator 26.5.0, SVG Export Plug-In . SVG Version: 6.00 Build 0)  -->
<svg version="1.1" id="Capa_1" xmlns="http://www.w3.org/2000/svg" xmlns:xlink="http://www.w3.org/1999/xlink" x="0px" y="0px"
	 viewBox="0 0 24 24" style="enable-background:new 0 0 24 24;" xml:space="preserve">
<style type="text/css">
	.st0{fill:#E2E2E2;}
	.st1{fill:#ED2E7E;}
</style>
<path class="st0" d="M14,8.4c0.2,0.5,0.7,0.8,1.2,1c0.1,0,0.1,0,0.2,0l5.2,0.7l-4.1,3.4c-0.4,0.4-0.6,0.9-0.6,1.5c0,0.1,0,0.1,0,0.2
	l1.3,5.6l-4.3-3c-0.3-0.2-0.6-0.3-0.9-0.3v2.1l4.5,3.1c0.2,0.2,0.5,0.2,0.8,0.3h0.5c0.3,0,0.6-0.1,0.8-0.3c0.6-0.4,0.8-1.2,0.7-1.8
	L17.9,15c0,0,0,0,0,0l4.4-3.6c0.5-0.4,0.8-1.1,0.6-1.8c-0.2-0.7-0.8-1.2-1.5-1.3l-5.6-0.8l-2.2-5.3c-0.3-0.6-0.9-1-1.6-1v2.4L14,8.4
	z"/>
<path class="st1" d="M12,17.7c0,0-0.1,0-0.1,0c-0.3,0-0.7,0.1-1,0.3l-4.3,3l1.3-5.6c0.2-0.7-0.1-1.5-0.6-1.8l-4-3.3l5.2-0.7
	c0.7,0,1.2-0.5,1.4-1.1L12,3.6l0,0V1.2c-0.7,0-1.3,0.4-1.6,1c0,0,0,0,0,0L7.9,7.5L2.3,8.3C1.5,8.4,1,8.9,0.8,9.6
	c-0.2,0.7,0.1,1.4,0.6,1.8L5.8,15l-1.4,6.1c-0.1,0.7,0.2,1.4,0.8,1.8c0.2,0.1,0.4,0.2,0.6,0.2h0.6c0.3,0,0.5-0.1,0.7-0.3l4.7-3.2
	l0.1,0.1V17.7z"/>
</svg>
